<?xml version="1.0" encoding="UTF-8"?>
<svg id="Layer_1" data-name="Layer 1" xmlns="http://www.w3.org/2000/svg" viewBox="0 0 2500 2200">
  <path d="M1958.11,239.88c-199.61-85.63-449.95-119.23-692.61-115.99-242.66-3.24-493,30.35-692.61,115.99-236,101.24-325.61,190.31-267.63,440.48,97.15,419.23,454.51,1000.19,713.58,1259.77,88.17,88.35,170.79,138.65,246.67,141.21,75.88-2.56,158.5-52.87,246.67-141.21,259.07-259.59,616.43-840.54,713.58-1259.77,57.97-250.17-31.63-339.24-267.63-440.48Z" fill="#223146"/>
  <g>
    <path d="M780.84,891.36c0,242.18,206.65,436.99,460.68,436.99,119.78,0,242.19-50.02,343.54-50.02,34.22,0,65.81,6.57,93.45,22.37v-293.05h-275.09v74.55c0,55.29-46.07,82.93-89.5,82.93-95.21,0-177.72-63.99-215.29-157.48h-151.1v-17.84h144.57c-1.88-5.74-3.58-11.57-5.13-17.49h-139.44v-17.84h135.38c-1.14-5.77-2.16-11.59-2.97-17.49h-132.41v-17.84h130.51c-.46-5.77-.73-11.61-.87-17.49h-129.63v-17.84h129.68c.18-5.85.46-11.69.94-17.49h-130.62v-17.84h132.63c.81-5.88,1.81-11.71,2.94-17.49h-135.57v-17.84h139.56c29.97-116.76,126.54-210.04,284.74-210.04,109.25,0,177.69,28.96,230.34,50.02l34.22-130.3c-89.5-31.59-156.63-69.76-368.55-69.76-293.52,0-487,196.12-487,438.31Z" fill="#e7d7c1"/>
    <rect x="1403.41" y="907.15" width="275.09" height="11.99" fill="#e7d7c1"/>
    <rect x="1403.41" y="936.98" width="275.09" height="17.49" fill="#e7d7c1"/>
    <rect x="1403.41" y="972.32" width="275.09" height="17.49" fill="#e7d7c1"/>
  </g>
</svg>