<svg width="22" height="22" viewBox="0 0 22 22" fill="none" xmlns="http://www.w3.org/2000/svg">
<path fill-rule="evenodd" clip-rule="evenodd" d="M7.33807 6.10946C8.86204 7.45056 9.87352 7.92267 10.7399 7.92267C11.6064 7.92267 12.6178 7.45056 14.1418 6.10946C15.6516 4.78084 17.4816 2.77023 19.9967 0.00362766L20 0L21.4799 1.34535L21.4333 1.39655C21.3897 1.44458 21.3462 1.49243 21.3029 1.54008L14.4086 9.34899C13.741 10.1052 13.741 11.2402 14.4086 11.9964L21.3043 19.8069C21.3472 19.854 21.3901 19.9013 21.4333 19.9488L21.4799 20L20 21.3453L19.9964 21.3414C17.4815 18.575 15.6516 16.5645 14.1418 15.2359C12.6178 13.8948 11.6064 13.4227 10.7399 13.4227C9.87352 13.4227 8.86204 13.8948 7.33807 15.2359C5.82767 16.565 3.99682 18.5767 1.48019 21.345L0 20L0.0465407 19.9488C0.0790356 19.9131 0.111434 19.8774 0.143735 19.8419L7.25635 12.018C7.94984 11.2552 7.94984 10.0902 7.25635 9.32733L0.140369 1.49975C0.109177 1.46544 0.0778947 1.43103 0.0465224 1.39652L0 1.34535L1.47988 0C3.99667 2.76847 5.82761 4.78026 7.33807 6.10946Z" fill="#3B3561"/>
</svg>
