<?xml version="1.0" encoding="UTF-8"?>
<svg id="Layer_1" data-name="Layer 1" xmlns="http://www.w3.org/2000/svg" viewBox="0 0 1366 768">
  <rect width="1367" height="769" fill="#223146"/>
  <rect x="593.9" y="241.42" width="76.59" height="4.87" fill="#e7d7c1"/>
  <path d="M670.49,161.49c0-20.89-17.59-38.11-38.48-38.11s-38.11,17.22-38.11,38.11,17.22,38.11,38.11,38.11,38.48-17.22,38.48-38.11Z" fill="#e7d7c1"/>
  <polygon points="459.56 285.64 557.27 285.64 557.27 280.77 462.25 280.77 459.56 285.64" fill="#e7d7c1"/>
  <polygon points="475.85 256.13 557.27 256.13 557.27 251.26 478.54 251.26 475.85 256.13" fill="#e7d7c1"/>
  <polygon points="470.42 265.97 557.27 265.97 557.27 261.1 473.11 261.1 470.42 265.97" fill="#e7d7c1"/>
  <polygon points="464.99 275.81 557.27 275.81 557.27 270.94 467.68 270.94 464.99 275.81" fill="#e7d7c1"/>
  <rect x="593.9" y="227.45" width="76.59" height="9.01" fill="#e7d7c1"/>
  <rect x="593.9" y="290.61" width="76.59" height="81.95" fill="#e7d7c1"/>
  <polygon points="712.25 155.63 712.25 227.45 687.34 227.45 687.34 236.46 827.68 236.46 827.68 227.45 788.84 227.45 788.84 155.63 712.25 155.63" fill="#e7d7c1"/>
  <rect x="593.9" y="280.77" width="76.59" height="4.87" fill="#e7d7c1"/>
  <rect x="593.9" y="270.94" width="76.59" height="4.87" fill="#e7d7c1"/>
  <rect x="593.9" y="261.1" width="76.59" height="4.87" fill="#e7d7c1"/>
  <rect x="593.9" y="251.26" width="76.59" height="4.87" fill="#e7d7c1"/>
  <rect x="355.73" y="270.94" width="76.59" height="4.87" fill="#e7d7c1"/>
  <path d="M68.81,258.23c0,67.42,57.53,121.66,128.25,121.66,33.35,0,67.43-13.92,95.64-13.92,9.53,0,18.32,1.83,26.02,6.23v-81.59h-76.59v20.76c0,15.39-12.82,23.09-24.92,23.09-26.51,0-49.48-17.81-59.94-43.84h-42.07v-4.97h40.25c-.52-1.6-1-3.22-1.43-4.87h-38.82v-4.97h37.69c-.32-1.61-.6-3.23-.83-4.87h-36.86v-4.97h36.33c-.13-1.61-.2-3.23-.24-4.87h-36.09v-4.97h36.1c.05-1.63.13-3.26.26-4.87h-36.36v-4.97h36.93c.23-1.64.5-3.26.82-4.87h-37.74v-4.97h38.85c8.35-32.51,35.23-58.48,79.27-58.48,30.41,0,49.47,8.06,64.13,13.92l9.53-36.28c-24.92-8.79-43.61-19.42-102.6-19.42-81.72,0-135.58,54.6-135.58,122.03Z" fill="#e7d7c1"/>
  <polygon points="557.27 227.45 491.67 227.45 486.7 236.46 557.27 236.46 557.27 227.45" fill="#e7d7c1"/>
  <rect x="242.14" y="262.63" width="76.59" height="3.34" fill="#e7d7c1"/>
  <rect x="355.73" y="227.45" width="76.59" height="9.01" fill="#e7d7c1"/>
  <rect x="242.14" y="270.94" width="76.59" height="4.87" fill="#e7d7c1"/>
  <rect x="242.14" y="280.77" width="76.59" height="4.87" fill="#e7d7c1"/>
  <rect x="355.73" y="241.42" width="76.59" height="4.87" fill="#e7d7c1"/>
  <polygon points="481.28 246.29 557.27 246.29 557.27 241.42 483.96 241.42 481.28 246.29" fill="#e7d7c1"/>
  <rect x="355.73" y="280.77" width="76.59" height="4.87" fill="#e7d7c1"/>
  <rect x="355.73" y="251.26" width="76.59" height="4.87" fill="#e7d7c1"/>
  <rect x="355.73" y="261.1" width="76.59" height="4.87" fill="#e7d7c1"/>
  <rect x="687.34" y="241.42" width="140.35" height="4.87" fill="#e7d7c1"/>
  <path d="M355.73,333.35c0,25.65,20.89,46.54,46.54,46.54,28.22,0,48.37-16.12,62.66-42.14l15.76-28.58v63.39h76.59v-81.95h-100.45l-8.02,14.53c-1.83,3.66-5.13,9.53-9.16,9.53s-7.33-3.3-7.33-7.33v-16.73h-76.59v42.74Z" fill="#e7d7c1"/>
  <path d="M835.37,300.01c0,43.97,50.2,79.88,111.76,79.88,27.85,0,46.17-9.16,75.12-9.16,12.46,0,21.99,5.86,26.02,9.16v-89.28h-76.58v44.94c-3.3,1.46-8.43,2.56-15.39,2.56-27.85,0-47.27-17.22-47.27-38.11,0-3.24.52-6.38,1.42-9.4h-74.27c-.51,3.09-.8,6.22-.8,9.4Z" fill="#e7d7c1"/>
  <path d="M1214.99,220.12c-32.55,0-45.15,11.92-71.49,16.33h105.34c-8.1-9.83-21.03-16.33-33.84-16.33Z" fill="#e7d7c1"/>
  <path d="M1249.47,280.77h-61.46c1.29,1.74,2.72,3.37,4.28,4.87h52.85c1.58-1.5,3.02-3.13,4.33-4.87Z" fill="#e7d7c1"/>
  <path d="M1238.66,290.61h-39.92c5.82,3.6,12.64,5.73,19.92,5.73s14.13-2.13,20-5.73Z" fill="#e7d7c1"/>
  <path d="M1084.9,246.29h169.84c-.68-1.68-1.5-3.3-2.43-4.87h-167.4v4.87Z" fill="#e7d7c1"/>
  <path d="M1084.9,220.12v16.33h25.44c-10.32-2.66-19.39-8.45-25.44-16.33Z" fill="#e7d7c1"/>
  <path d="M1084.9,256.13h85.87c.56-.06,1.13-.1,1.71-.1.5,0,1.01.05,1.51.1h83.01c-.11-1.65-.33-3.28-.7-4.87h-171.4v4.87Z" fill="#e7d7c1"/>
  <path d="M1084.9,275.81h76.59v-4.87h-76.59v4.87Z" fill="#e7d7c1"/>
  <path d="M1084.9,285.64h76.59v-4.87h-76.59v4.87Z" fill="#e7d7c1"/>
  <path d="M1254.83,270.94h-72.1c.6,1.68,1.3,3.31,2.13,4.87h67.81c.84-1.56,1.55-3.19,2.16-4.87Z" fill="#e7d7c1"/>
  <path d="M1084.9,372.56h76.59v-81.95h-76.59v81.95Z" fill="#e7d7c1"/>
  <path d="M1084.9,265.97h76.59c0-3.09,0-4.85,0-4.81.02-.02.04-.04.06-.06h-76.64v4.87Z" fill="#e7d7c1"/>
  <path d="M1256.98,261.1h-76.31c.11,1.65.3,3.28.63,4.87h75.01c.34-1.59.54-3.22.67-4.87Z" fill="#e7d7c1"/>
  <path d="M864.54,246.29h183.73v-4.87h-176.95c-2.35,1.56-4.62,3.18-6.78,4.87Z" fill="#e7d7c1"/>
  <path d="M1048.27,220.12c-4.03,4.4-13.56,9.16-26.02,9.16-28.95,0-47.27-9.16-75.12-9.16-25.35,0-48.76,6.1-67.55,16.33h168.69v-16.33Z" fill="#e7d7c1"/>
  <rect x="687.34" y="251.26" width="140.35" height="4.87" fill="#e7d7c1"/>
  <rect x="712.25" y="270.94" width="76.59" height="4.87" fill="#e7d7c1"/>
  <path d="M712.25,321.99c0,27.85,22.72,50.57,50.57,50.57h46.54v-35.91h-10.63c-5.5,0-9.89-4.4-9.89-9.89v-36.15h-76.59v31.38Z" fill="#e7d7c1"/>
  <rect x="712.25" y="280.77" width="76.59" height="4.87" fill="#e7d7c1"/>
  <rect x="687.34" y="261.1" width="140.35" height="4.87" fill="#e7d7c1"/>
  <rect x="971.69" y="270.94" width="76.58" height="4.87" fill="#e7d7c1"/>
  <path d="M853.85,256.13h194.42v-4.87h-189.54c-1.71,1.58-3.34,3.2-4.89,4.87Z" fill="#e7d7c1"/>
  <rect x="971.69" y="280.77" width="76.58" height="4.87" fill="#e7d7c1"/>
  <path d="M840.65,275.81h78.64c1.75-1.77,3.71-3.39,5.84-4.87h-82.03c-.88,1.6-1.71,3.22-2.44,4.87Z" fill="#e7d7c1"/>
  <path d="M846.08,265.97h88.35c6.4-2.58,13.76-4.07,21.86-4.07,6.96,0,12.09,1.83,15.39,2.93v1.14h76.58v-4.87h-198.66c-1.25,1.59-2.43,3.21-3.53,4.87Z" fill="#e7d7c1"/>
  <path d="M837.22,285.64h75.1c.81-1.69,1.79-3.31,2.88-4.87h-76.52c-.56,1.6-1.04,3.23-1.46,4.87Z" fill="#e7d7c1"/>
  <g>
    <path d="M855,431.49l7.92-1.38c.85,0,1.7.29,2.54.57l1.41.29h.85c.57,0,1.41,0,2.83-.27,1.13-.28,2.55-.56,3.68-.83.28,0,1.41.29,2.26.29l22.05.64c2.26.86,3.67,1.43,5.93,1.43h1.98s1.7.01,1.7.01c.84,1.13,2.25,1.7,3.38,2.27,6.22.31,11.01,3.43,16.09,6.56,3.67,1.14,12.7,7.4,11.83,11.63l.85.57.56.85c.56.28,1.13,1.13,1.41,1.98.28,1.7.84,3.4,1.4,4.81.28,1.98.83,3.4.83,3.96l-.6,9.61c-.3,3.96-2.29,9.32-4,12.14,0,1.41-.01,3.39-.3,4.81-.85.84-1.42,1.97-2.27,2.54-.29,1.13-.29,2.26-.58,3.11-.85,1.69-2.56,2.82-3.69,3.94-1.15,5.37-6.54,9.87-9.66,14.67-1.13.84-5.11,4.22-5.11,5.92-2.84,3.1-5.96,5.35-8.23,8.45-1.7.28-3.11.55-4.53,1.12,0,.28-.29.85-.29,1.13s0,.85-.29,1.41c-1.14,1.97-5.11,5.07-8.79,7.32-1.7,1.12-2.84,2.82-4.54,4.22-8.21,3.08-19.27,12.37-23.24,16.32-1.13,0-1.7.28-2.55.56-2.83,1.97-6.52,3.94-9.07,5.91-6.8,3.65-14.16,7.58-21.81,10.95-1.42.28-2.83.56-4.53.55-1.42,1.69-3.12,2.53-4.25,2.81-1.7.56-2.55.56-3.4,1.68-3.12,1.4-5.94.26-7.65,4.21-1.98-.57-3.67-1.14-5.65-1.43-1.71,3.1-7.09,7.04-11.05,7.03-.57,0-1.13-.29-1.41-.29h-.56s0-.29,0-.29l-35.09,8.92c-.85-.29-1.13-.29-1.41-.29-2.55,1.4-5.1,2.53-8.21,3.08-.28-.57-.56-.57-1.13-.85h-.56c-1.98.56-3.68,1.68-5.38,2.24-1.7.28-3.68.55-5.66.83-1.7.56-3.4.83-3.96.83-.85,0-1.13-.29-1.41-.29l-.28-.28c-1.99,1.69-4.53,1.4-7.36,1.95-.28.28-1.13.28-2.26.84-1.41-.57-2.54-.57-3.67-.58-.56,0-3.68.27-6.79.82-3.39.55-6.5.82-7.07.82-9.9-.04-20.36-.07-23.7-13.94h-.28s-.28-.28-.28-.28q-.28,0-.85-.29c0-.57.29-1.7.57-2.54,0-.28,0-.57-.28-.57,0-.57-.84-1.98-.84-2.83.29-.85.86-1.69,1.14-2.54.3-5.65,5.14-13.83,9.68-18.34,1.99-1.97,3.12-3.66,3.97-3.1.57.29.27,4.52-.03,7.07.84,1.42.84,2.83,1.12,4.53.28,1.42.56,2.26,1.96,3.96.28.57.28,1.13.28,1.7l3.38,3.41h.85s40.92-59.79,40.92-59.79c.28-.56.57-.85,1.14-1.41l1.13-1.13c.57-.85,1.42-1.69,1.99-2.25.86-2.82,2-5.93,3.14-9.32,4.53-1.68,5.96-5.07,6.53-8.74,1.42-.84,3.12-1.97,3.97-2.53-2.24-5.1,6.83-13.55,10.52-17.21.86-1.98,3.13-5.08,5.4-7.61,0-.28,0-.85-1.13-1.13l5.38-3.66c-1.13-1.13,0-1.41.57-1.7.29-1.41.86-2.82,2.28-3.95l-.56-.29c1.42-1.97,3.41-3.66,5.39-4.79,1.14-1.69,2.28-3.67,3.69-5.08,1.14-2.26,1.71-3.39,2-5.08,1.42-1.13,2.55-1.69,3.4-2.53-.85-.29-1.13-.29-1.98-.29-.28,0-.57,0-.85-.29-2.55,1.4-6.51,1.96-7.64,1.95-.28,0-.85,0-1.13-.29h-.28c-.85,0-8.77,2.23-12.45,3.63-8.48-.31-14.71,3.34-22.63,5.01-3.12,1.97-5.95,2.24-9.34,3.64-.86,3.39,5.64,4.54,9.03,4.56.84.85,1.12,1.98,1.12,2.83-2.83,1.69-5.95,2.52-8.78,3.93-3.4.84-8.49,2.23-12.73,3.07-3.96,1.4-7.64,2.23-8.21,2.23l-11.31-.32c-2.83-.29-6.21-1.44-9.6-2.58l.29-1.98v-1.13s.57-.28.57-.28l.57-.28,1.7-1.69c1.14-3.67,3.7-5.64,6.81-7.33,2.83-1.69,6.8-3.37,11.9-6.46,1.7-.28,2.26-.27,4.24-.27,1.42-.56,3.12-1.68,4.53-2.53,1.41-.28,2.54.29,3.39.58,2.55-1.4,5.38-2.81,7.93-3.93,1.13,0,1.98.85,3.11.86l24.91-8.39c.57,0,1.69.57,2.26.57,3.11-.55,9.34-3.08,13.31-5.04,7.64-.54,15.27-1.93,23.2-3.31,2.27-1.69,4.26-4.79,5.96-7.05.85-.28,1.41-.28,2.26-.56h.57s.57-.28.57-.28l.85-1.13c.28-.56.57-1.13,1.42-1.97,6.23-1.67,9.38-13.54,18.14-12.66,2.26-.27,4.53-.83,6.51-1.39,2.26-.28,3.96-.83,4.81-.83.57,0,2.26.29,4.24.86,1.98.29,3.96.58,5.93.87.56.28.28.57.28.85v.85c.28.28.28.85.84,1.42-.85,1.69-3.12,3.67-4.54,4.51-2.84,3.38-5.4,7.05-6.82,10.15.28.28.56.57.28,1.13.85.29,2.26.29,3.11.86ZM720.42,592.44c-.85.84-1.98,1.41-2.83,2.25-1.13.84-1.7,1.41-1.7,1.97.85.29,1.98.85,2.82,1.71h1.41c.57,0,1.13,0,1.98.29.56.57,1.69,1.14,2.82,1.14s12.16-1.37,18.1-1.91c1.13-.28,1.98-.84,2.55-.84,5.66-.26,11.88-1.65,17.25-2.2,3.4-1.4,8.49-3.08,12.17-4.48h.85c0,.29.28.29.85.29.57,0,1.7-1.41,4.82-2.25,2.26.57,5.1-1.96,7.36-2.8,5.66-1.96,10.19-4.49,14.16-7.3,5.09-.83,10.19-3.64,14.72-5.6,9.07-5.06,20.4-11.24,28.33-16.01,2.83-2.25,6.24-4.78,9.07-5.91,5.67-3.66,11.9-8.44,16.44-12.1,4.83-5.36,10.5-11.55,14.48-16.35,1.7-.56,3.12-1.68,3.97-3.09,1.14-3.11,4.26-5.36,6.25-8.18,6.54-10.16,16.77-25.38,17.38-37.26,0-1.13-.26-7.07-1.09-10.18,0-1.98-1.68-4.53-1.96-6.23-1.13-1.13-1.97-2.27-2.53-3.12-2.26-1.14-3.95-2.28-4.79-4.54-2.26.56-3.39-1.42-4.8-2.56l-.84-.85c-.28-.28-.57-.28-.56-.57-1.13-.57-2.54-.86-3.67-1.14-1.41-.29-2.54-.86-3.95-2.56l-14.41-3.16c-2.83.27-8.77,1.1-9.9,1.1s-1.98-.29-2.83-.58c-1.41-.29-2.26-.57-2.82-.58-4.81-.02-11.03,1.66-15.56,2.49-.29,2.26-4.25,2.53-6.23,3.09-3.98,4.79-7.1,9.87-10.23,15.23-.85,0-1.98,0-2.83.27-.57,1.41-1.71,3.39-2.28,5.08-1.14,1.97-2.84,3.66-5.67,4.79-.85,1.69-2.84,3.38-3.97,4.79-.29,1.41-1.14,2.82-1.99,4.23-3.4,2.25-3.69,3.95-5.12,7.33-1.14,1.69-2.56,3.95-3.13,6.21-1.14,1.41-2.84,3.38-4.54,4.23-2.84,3.95-3.99,7.9-8.24,10.43-1.14,2.26-3.69,4.79-5.68,6.48-.29.85-.57,1.69-.57,2.26-2.27,2.25-3.97,4.23-5.96,5.92-3.69,4.79-4.84,10.44-10.51,14.38-.57,1.69-1.71,2.82-2.84,4.51v.56s0,1.13,0,1.13c-1.7,1.12-3.68,1.97-5.38,2.81,0,1.7-.01,3.39-1.15,4.8-3.96,1.12-5.39,3.94-7.09,7.04l-1.42,1.97c-.57,2.26-1.71,4.23-4.26,5.07-2.55,3.1-3.7,7.34-7.95,9.02-.58,3.39-4.84,8.75-6.55,12.13-3.12,1.97-5.38,3.66-8.22,5.62-.85.28,0,1.7-1.7,1.69Z" fill="#e7d7c1"/>
    <path d="M1042.41,520.92c-5.66,2.53-10.48,4.49-16.14,7.01l-1.15,4.8-.3,5.09-4.28,10.16-5.97,8.18-13.63,16.91-23.54,21.97-15.3,8.71-18.42,11.81-17.55,6.72-12.72-.61-4.23-1.99-3.66-5.1-2.52-6.51,1.16-8.48-.26-5.66,4.29-14.4,13.93-21.72,17.04-20.58,18.15-16.33,9.07-5.62,7.93-4.78,19.25-8.41,10.75-.81,3.95,2.28,1.12,3.4-.03,8.76,10.74,1.17,3.39-.27,1.13,1.13c5.66-.26,8.48-.54,13.85-.52,2.26-.27,5.09-.55,6.79-.54,1.41,0,2.26.29,2.26.86,0,1.13-2.27,2.54-5.1,3.37ZM1001.04,546.79l-5.1,3.37c-2.27,1.41-4.25,3.09-5.38,3.09-.85,0-.28-1.7.58-4.24s2.57-7.34,2.87-11.58c-.56-1.7-1.96-5.94-3.06-14.99-7.07,1.67-13.31,6.74-20.4,12.65l-7.65,3.93-2,4.8-4.53,2.81-2,7.06c-1.14,3.11-3.69,3.66-5.68,8.18-5.68,7.61-10.24,18.06-13.66,26.24-1.15,4.24-2.01,7.34-3.43,11.01l.26,6.79,2.53,3.4,1.97,1.14,15.01-6.17c4.25-3.38,10.2-7.31,14.17-9.56l1.43-3.67c5.67-2.81,10.49-8.45,14.75-12.1l11.07-12.12,8.24-12.41,2.85-7.34-2.83-.29Z" fill="#e7d7c1"/>
    <path d="M1086.25,515.14c-.29,1.7,0,2.26,0,2.54.85.57,1.13.85,1.69.85l16.13-3.9c1.7-.28,3.95,1.71,4.8,2.84-.29,1.98-1.43,3.95-2.28,5.93-3.12,1.97-5.67,5.07-6.25,7.89-.85,1.13-2.27,1.69-3.12,2.82-1.13.56-3.12,1.69-4.53,2.25-1.13,1.13-3.12,2.82-5.1,4.22-.29,1.13-1.71,4.23-1.72,5.08,0,.85-.29,1.41-.29,1.7-3.68,2.81-7.1,9.3-12.2,11.55l-11.66,18.05c-3.41,4.51-8.51,7.89-10.5,12.4-2.27,3.1-3.98,5.64-6.54,9.02-1.42.84-3.4,2.81-4.26,4.79-1.42,1.69-3.4,3.38-5.68,5.92,0,.85-2.28,3.95-2.84,5.08l-11.34,9.57c-.29,1.13-1.71,4.23-2.28,5.93l-4.53,2.25c0,1.98-1.42,3.1-1.72,5.65l-7.65,4.5-.58,3.11-8.51,7.6-.86,2.54c-5.39,4.79-10.21,8.45-15.88,14.36-1.14,1.69-4.26,4.51-4.26,5.92l-7.93,3.08-9.36,7.88c-3.68.27-6.51,2.24-10.48,4.49l-3.39-.58c-2.27,1.69-4.25,2.25-7.36,2.52l-7.63-2.01-4.51-3.69-3.11-.58c-.56-2.26-3.09-4.25-2.8-6.23-3.1-3.97-4.78-7.08-5.9-11.61.29-1.13.29-1.98.29-2.83-1.69-1.7-2.82-3.12-3.66-4.82l1.14-2.26c-1.96-5.94.05-13.57-.78-20.36,0-.85,1.14-3.67,1.43-5.37,2.26,1.71,2.25,4.53,3.08,7.64,1.69.86,3.38,3.12,5.64,3.41l-.29,1.7c4.24.3,8.18,5.12,11.84,8.24,2.27-1.69,5.36,2,7.91,2.57,4.52.87,9.62-1.1,15.83.62l4.82-2.81,5.37.02,13.31-6.17c1.42-2.54,4.25-2.81,5.11-5.64,4.25-1.68,5.11-5.64,10.49-7.88l9.66-13.25,4.82-4.79,1.14-3.39c2.56-3.95,9.37-9.86,11.37-15.79,3.7-6.49,15.06-20.87,16.77-25.95,3.69-3.1,5.12-9.31,10.79-13.25,1.99-4.52,5.12-10.16,9.1-14.1,1.14-3.39,4.27-8.47,6.26-12.7,2.27-2.54,4.55-6.2,6.82-9.31,5.39-5.63,8.23-7.6,12.19-8.44,3.11.29,3.67.58,3.95,1.14ZM1097.37,489.17c-.28-1.7-.27-3.11-.55-5.37.57-.85,1.98-1.41,3.4-2.25,0-1.98,1.43-4.52,2.29-7.06,1.13-.28,3.68-1.97,4.53-3.09,2.56-3.95,3.72-11.29,9.66-13.54,1.71-2.82,4.55-6.2,7.1-9.3l16.69-3.05c1.41,0,2.83,0,4.24.58v3.67c-1.71,1.69-3.14,3.38-3.99,5.36-3.69,3.38-7.38,7.04-9.93,10.42-.57,2.26-1.14,3.96-1.15,5.93-.58,2.83-4.82,3.09-7.08,4.5-3.12,2.25-7.66,7.89-11.62,8.44-3.41,4.79-2.85,6.49-4.56,10.16-1.13.84-2.83,1.69-3.4,2.53-.28,0-.56-.85-1.12-1.7h-2.83s-3.4,2.52-3.4,2.52c-2.83,1.12-3.97,3.66-6.24,5.07-.56-1.42.29-2.83,1.43-4.52,2.27-3.38,3.69-4.79,6.54-9.31Z" fill="#e7d7c1"/>
    <path d="M1230.98,521.6c-5.66,2.52-10.48,4.49-16.14,7.01l-1.15,4.8-.3,5.09-4.28,10.16-5.97,8.18-13.63,16.91-23.54,21.97-15.3,8.71-18.42,11.81-17.55,6.72-12.72-.61-4.23-2-3.66-5.1-2.52-6.51,1.16-8.48-.26-5.66,4.29-14.4,13.93-21.72,17.04-20.58,18.15-16.33,9.07-5.62,7.93-4.78,19.25-8.41,10.75-.81,3.95,2.28,1.12,3.4-.03,8.76,10.74,1.17,3.39-.27,1.13,1.13c5.66-.26,8.48-.54,13.85-.52,2.26-.27,5.09-.55,6.79-.54,1.41,0,2.26.29,2.26.86,0,1.13-2.27,2.54-5.1,3.38ZM1189.61,547.46l-5.1,3.38c-2.27,1.41-4.25,3.09-5.38,3.09-.85,0-.28-1.7.58-4.24s2.57-7.34,2.87-11.58c-.56-1.7-1.96-5.94-3.06-15-7.07,1.67-13.31,6.74-20.4,12.65l-7.65,3.93-2,4.8-4.53,2.81-2,7.06c-1.14,3.11-3.69,3.66-5.68,8.18-5.68,7.61-10.24,18.06-13.66,26.24-1.15,4.24-2.01,7.34-3.43,11.01l.26,6.79,2.53,3.4,1.97,1.14,15.01-6.17c4.25-3.38,10.2-7.31,14.17-9.56l1.43-3.67c5.67-2.81,10.49-8.45,14.75-12.11l11.07-12.12,8.24-12.41,2.85-7.34-2.83-.29Z" fill="#e7d7c1"/>
  </g>
</svg>